<svg xmlns="http://www.w3.org/2000/svg" viewBox="0 0 192 192">
  <rect width="192" height="192" rx="28" fill="#0f1117"/>
  <rect x="30" y="60" width="18" height="72" rx="3" fill="#ef5350"/>
  <line x1="39" y1="50" x2="39" y2="70" stroke="#ef5350" stroke-width="3"/>
  <line x1="39" y1="120" x2="39" y2="140" stroke="#ef5350" stroke-width="3"/>
  <rect x="62" y="80" width="18" height="52" rx="3" fill="#26a69a"/>
  <line x1="71" y1="68" x2="71" y2="88" stroke="#26a69a" stroke-width="3"/>
  <line x1="71" y1="120" x2="71" y2="145" stroke="#26a69a" stroke-width="3"/>
  <rect x="94" y="55" width="18" height="70" rx="3" fill="#26a69a"/>
  <line x1="103" y1="42" x2="103" y2="62" stroke="#26a69a" stroke-width="3"/>
  <line x1="103" y1="115" x2="103" y2="136" stroke="#26a69a" stroke-width="3"/>
  <rect x="126" y="70" width="18" height="50" rx="3" fill="#ef5350"/>
  <line x1="135" y1="58" x2="135" y2="78" stroke="#ef5350" stroke-width="3"/>
  <line x1="135" y1="110" x2="135" y2="132" stroke="#ef5350" stroke-width="3"/>
  <rect x="158" y="65" width="18" height="55" rx="3" fill="#26a69a"/>
  <line x1="167" y1="52" x2="167" y2="72" stroke="#26a69a" stroke-width="3"/>
  <line x1="167" y1="112" x2="167" y2="130" stroke="#26a69a" stroke-width="3"/>
</svg>